# xmcd
#
# Track frame offsets:
#	150
#	17125
#	29955
#	50467
#	69020
#	86742
#	102552
#	122592
#	139620
#	153750
#	169047
#	185167
#
# Disc length: 2720 seconds
# Revision: 1
# Processed by: cddbd v1.5.2PL0 Copyright (c) Steve Scherf et al.
# Submitted via: dBpowerAMP V12.0
#
DISCID=a00a9e0c
DTITLE=Gindala - 12
DYEAR=1900
DGENRE=Pop
TTITLE0=1
TTITLE1=2
TTITLE2=3
TTITLE3=4
TTITLE4=5
TTITLE5=6
TTITLE6=7
TTITLE7=8
TTITLE8=9
TTITLE9=10
TTITLE10=11
TTITLE11=12
EXTD=
EXTT0=
EXTT1=
EXTT2=
EXTT3=
EXTT4=
EXTT5=
EXTT6=
EXTT7=
EXTT8=
EXTT9=
EXTT10=
EXTT11=
PLAYORDER=
